# xmcd
#
# Track frame offsets:
#	150
#	13185
#	27564
#	42631
#	56069
#	71695
#	85085
#	104572
#	117583
#	135559
#	153196
#	173500
#
# Disc length: 2541 seconds
#
# Revision: 0
# Processed by: cddbd v1.5.2PL0 Copyright (c) Steve Scherf et al.
# Submitted via: EasyCDDAExtractor 10.0.2.1
#
DISCID=a509eb0c
DTITLE=Dale Ann Bradley - Catch Tomorrow
DYEAR=2006
DGENRE=Bluegrass
TTITLE0=Rita Mae
TTITLE1=Live Forever
TTITLE2=Hold On To Nothing
TTITLE3=I Can't Stand The Rain
TTITLE4=Run Rufus Run
TTITLE5=Memories, Miles And Tears
TTITLE6=Pass Me Not
TTITLE7=Julia Belle
TTITLE8=Grandma's Gift
TTITLE9=Mercy Railroad
TTITLE10=When The Mist Comes Again
TTITLE11=Me And Bobby McGee
EXTD=
EXTT0=
EXTT1=
EXTT2=
EXTT3=
EXTT4=
EXTT5=
EXTT6=
EXTT7=
EXTT8=
EXTT9=
EXTT10=
EXTT11=
PLAYORDER=
